<!DOCTYPE svg PUBLIC "-//W3C//DTD SVG 1.1//EN" "http://www.w3.org/Graphics/SVG/1.1/DTD/svg11.dtd">
<!-- Uploaded to: SVG Repo, www.svgrepo.com, Transformed by: SVG Repo Mixer Tools -->
<svg fill="#ffffff" height="800px" width="800px" version="1.1" id="Layer_1" xmlns="http://www.w3.org/2000/svg" xmlns:xlink="http://www.w3.org/1999/xlink" viewBox="0 0 512.001 512.001" xml:space="preserve" stroke="#ffffff">
<g id="SVGRepo_bgCarrier" stroke-width="0"/>
<g id="SVGRepo_tracerCarrier" stroke-linecap="round" stroke-linejoin="round"/>
<g id="SVGRepo_iconCarrier"> <g> <g> <g> <path d="M508.401,449.374l-39.104-33.89c-4.353-3.772-10.938-3.301-14.709,1.051c-3.772,4.352-3.301,10.938,1.051,14.709 l17.979,15.582h-38.262V122.525c0-5.759-4.668-10.428-10.428-10.428h-46.925c-5.759,0-10.428,4.669-10.428,10.428v324.301 h-26.069V322.043c0-5.759-4.668-10.428-10.428-10.428h-46.925c-5.759,0-10.428,4.668-10.428,10.428v124.784h-26.069V236.536 c0-5.759-4.668-10.428-10.428-10.428h-46.925c-5.759,0-10.428,4.668-10.428,10.428v210.291h-26.069V294.583 c0-5.759-4.668-10.428-10.428-10.428H96.456c-5.759,0-10.428,4.668-10.428,10.428v152.244H59.959V46.723l15.582,17.98 c2.063,2.38,4.965,3.599,7.884,3.599c2.42,0,4.852-0.838,6.825-2.547c4.352-3.772,4.823-10.358,1.05-14.709l-33.89-39.104 c-0.053-0.06-0.102-0.109-0.154-0.166c-1.097-1.212-2.481-2.177-4.081-2.775c-4.077-1.521-8.673-0.349-11.525,2.941L7.76,51.046 c-3.771,4.35-3.3,10.937,1.052,14.709c4.353,3.773,10.938,3.301,14.709-1.051l15.582-17.979v400.102H10.428 C4.668,446.827,0,451.495,0,457.255c0,5.759,4.668,10.428,10.428,10.428h28.676v25.548c0,5.759,4.668,10.428,10.428,10.428 s10.428-4.668,10.428-10.428v-25.548h413.659l-17.979,15.582c-4.352,3.772-4.823,10.358-1.05,14.709 c2.063,2.38,4.965,3.599,7.884,3.599c2.42,0,4.852-0.838,6.825-2.547l39.104-33.89c0.083-0.072,0.154-0.14,0.229-0.21 c0.046-0.042,0.093-0.083,0.138-0.126c0.014-0.014,0.025-0.026,0.039-0.04c1.1-1.059,1.977-2.366,2.535-3.86 C512.865,456.821,511.691,452.226,508.401,449.374z M132.953,446.827h-26.069V305.01h26.069V446.827z M226.802,446.827h-26.069 V246.963h26.069V446.827z M320.652,446.827h-26.069V332.471h26.069V446.827z M414.501,446.827h-26.069V132.953h26.069V446.827z"/> <path d="M311.209,52.265l24.445,5.133L92.257,218.808c-4.8,3.182-6.11,9.654-2.927,14.454c2.007,3.026,5.321,4.665,8.7,4.665 c1.979,0,3.98-0.563,5.754-1.738L346.759,75.058l-5.028,23.948c-1.184,5.636,2.427,11.165,8.063,12.347 c5.632,1.184,11.165-2.427,12.347-8.063l10.254-48.836c0.87-4.141-0.849-8.396-4.35-10.772c-0.954-0.648-1.993-1.104-3.065-1.401 c-0.194-0.064-0.402-0.123-0.646-0.174l-48.836-10.254c-5.634-1.186-11.165,2.427-12.347,8.063 C301.964,45.552,305.573,51.081,311.209,52.265z"/> </g> </g> </g> </g>
</svg>